<svg id="visual" viewBox="0 0 960 540" width="960" height="540" xmlns="http://www.w3.org/2000/svg" xmlns:xlink="http://www.w3.org/1999/xlink" version="1.1"><rect x="0" y="0" width="960" height="540" fill="#7b74b2"></rect><defs><linearGradient id="grad1_0" x1="43.8%" y1="0%" x2="100%" y2="100%"><stop offset="14.444444444444446%" stop-color="#b1a6ff" stop-opacity="1"></stop><stop offset="85.55555555555554%" stop-color="#b1a6ff" stop-opacity="1"></stop></linearGradient></defs><defs><linearGradient id="grad1_1" x1="43.8%" y1="0%" x2="100%" y2="100%"><stop offset="14.444444444444446%" stop-color="#b1a6ff" stop-opacity="1"></stop><stop offset="85.55555555555554%" stop-color="#9f95e5" stop-opacity="1"></stop></linearGradient></defs><defs><linearGradient id="grad1_2" x1="43.8%" y1="0%" x2="100%" y2="100%"><stop offset="14.444444444444446%" stop-color="#8d84cb" stop-opacity="1"></stop><stop offset="85.55555555555554%" stop-color="#9f95e5" stop-opacity="1"></stop></linearGradient></defs><defs><linearGradient id="grad1_3" x1="43.8%" y1="0%" x2="100%" y2="100%"><stop offset="14.444444444444446%" stop-color="#8d84cb" stop-opacity="1"></stop><stop offset="85.55555555555554%" stop-color="#7b74b2" stop-opacity="1"></stop></linearGradient></defs><defs><linearGradient id="grad2_0" x1="0%" y1="0%" x2="56.3%" y2="100%"><stop offset="14.444444444444446%" stop-color="#b1a6ff" stop-opacity="1"></stop><stop offset="85.55555555555554%" stop-color="#b1a6ff" stop-opacity="1"></stop></linearGradient></defs><defs><linearGradient id="grad2_1" x1="0%" y1="0%" x2="56.3%" y2="100%"><stop offset="14.444444444444446%" stop-color="#9f95e5" stop-opacity="1"></stop><stop offset="85.55555555555554%" stop-color="#b1a6ff" stop-opacity="1"></stop></linearGradient></defs><defs><linearGradient id="grad2_2" x1="0%" y1="0%" x2="56.3%" y2="100%"><stop offset="14.444444444444446%" stop-color="#9f95e5" stop-opacity="1"></stop><stop offset="85.55555555555554%" stop-color="#8d84cb" stop-opacity="1"></stop></linearGradient></defs><defs><linearGradient id="grad2_3" x1="0%" y1="0%" x2="56.3%" y2="100%"><stop offset="14.444444444444446%" stop-color="#7b74b2" stop-opacity="1"></stop><stop offset="85.55555555555554%" stop-color="#8d84cb" stop-opacity="1"></stop></linearGradient></defs><g transform="translate(960, 0)"><path d="M0 540C-32 502.7 -64 465.5 -105.9 464.1C-147.8 462.7 -199.5 497.1 -234.3 486.5C-269.1 475.9 -286.9 420.3 -303 380C-319.2 339.7 -333.7 314.7 -370.6 295.5C-407.5 276.4 -466.8 263 -478.4 230.4C-490 197.7 -454 145.8 -456.3 104.1C-458.6 62.5 -499.3 31.3 -540 0L0 0Z" fill="#847cbe"></path><path d="M0 405C-24 377.1 -48 349.1 -79.4 348C-110.8 347 -149.6 372.8 -175.7 364.9C-201.8 356.9 -215.1 315.2 -227.3 285C-239.4 254.7 -250.3 236 -277.9 221.7C-305.6 207.3 -350.1 197.3 -358.8 172.8C-367.5 148.3 -340.5 109.3 -342.2 78.1C-343.9 46.9 -374.5 23.4 -405 0L0 0Z" fill="#958dd8"></path><path d="M0 270C-16 251.4 -32 232.7 -53 232C-73.9 231.3 -99.8 248.6 -117.1 243.3C-134.5 238 -143.4 210.1 -151.5 190C-159.6 169.8 -166.8 157.3 -185.3 147.8C-203.7 138.2 -233.4 131.5 -239.2 115.2C-245 98.9 -227 72.9 -228.1 52.1C-229.3 31.3 -249.6 15.6 -270 0L0 0Z" fill="#a89df2"></path><path d="M0 135C-8 125.7 -16 116.4 -26.5 116C-36.9 115.7 -49.9 124.3 -58.6 121.6C-67.3 119 -71.7 105.1 -75.8 95C-79.8 84.9 -83.4 78.7 -92.6 73.9C-101.9 69.1 -116.7 65.8 -119.6 57.6C-122.5 49.4 -113.5 36.4 -114.1 26C-114.6 15.6 -124.8 7.8 -135 0L0 0Z" fill="#b1a6ff"></path></g><g transform="translate(0, 540)"><path d="M0 -540C35.6 -520.5 71.1 -501 113.7 -498.2C156.3 -495.4 205.8 -509.2 234.3 -486.5C262.8 -463.8 270.1 -404.5 298 -373.7C325.9 -342.9 374.4 -340.6 395.6 -315.5C416.8 -290.4 410.8 -242.5 431.6 -207.8C452.4 -173.2 500 -151.7 522.6 -119.3C545.1 -86.8 542.6 -43.4 540 0L0 0Z" fill="#847cbe"></path><path d="M0 -405C26.7 -390.4 53.4 -375.8 85.3 -373.6C117.2 -371.5 154.4 -381.9 175.7 -364.9C197.1 -347.9 202.6 -303.4 223.5 -280.3C244.5 -257.2 280.8 -255.4 296.7 -236.6C312.6 -217.8 308.1 -181.9 323.7 -155.9C339.3 -129.9 375 -113.8 391.9 -89.5C408.8 -65.1 406.9 -32.6 405 0L0 0Z" fill="#958dd8"></path><path d="M0 -270C17.8 -260.3 35.6 -250.5 56.9 -249.1C78.1 -247.7 102.9 -254.6 117.1 -243.3C131.4 -231.9 135.1 -202.3 149 -186.9C163 -171.5 187.2 -170.3 197.8 -157.7C208.4 -145.2 205.4 -121.2 215.8 -103.9C226.2 -86.6 250 -75.9 261.3 -59.6C272.6 -43.4 271.3 -21.7 270 0L0 0Z" fill="#a89df2"></path><path d="M0 -135C8.9 -130.1 17.8 -125.3 28.4 -124.5C39.1 -123.8 51.5 -127.3 58.6 -121.6C65.7 -116 67.5 -101.1 74.5 -93.4C81.5 -85.7 93.6 -85.1 98.9 -78.9C104.2 -72.6 102.7 -60.6 107.9 -52C113.1 -43.3 125 -37.9 130.6 -29.8C136.3 -21.7 135.6 -10.9 135 0L0 0Z" fill="#b1a6ff"></path></g></svg>