<svg id="visual" viewBox="0 0 960 540" width="960" height="540" xmlns="http://www.w3.org/2000/svg" xmlns:xlink="http://www.w3.org/1999/xlink" version="1.1"><rect x="0" y="0" width="960" height="540" fill="#c0b7ff"></rect><defs><linearGradient id="grad1_0" x1="43.8%" y1="0%" x2="100%" y2="100%"><stop offset="14.444444444444446%" stop-color="#b1a6ff" stop-opacity="1"></stop><stop offset="85.55555555555554%" stop-color="#b1a6ff" stop-opacity="1"></stop></linearGradient></defs><defs><linearGradient id="grad1_1" x1="43.8%" y1="0%" x2="100%" y2="100%"><stop offset="14.444444444444446%" stop-color="#b1a6ff" stop-opacity="1"></stop><stop offset="85.55555555555554%" stop-color="#c0b7ff" stop-opacity="1"></stop></linearGradient></defs><defs><linearGradient id="grad2_0" x1="0%" y1="0%" x2="56.3%" y2="100%"><stop offset="14.444444444444446%" stop-color="#b1a6ff" stop-opacity="1"></stop><stop offset="85.55555555555554%" stop-color="#b1a6ff" stop-opacity="1"></stop></linearGradient></defs><defs><linearGradient id="grad2_1" x1="0%" y1="0%" x2="56.3%" y2="100%"><stop offset="14.444444444444446%" stop-color="#c0b7ff" stop-opacity="1"></stop><stop offset="85.55555555555554%" stop-color="#b1a6ff" stop-opacity="1"></stop></linearGradient></defs><g transform="translate(960, 0)"><path d="M0 540C-41.6 540.4 -83.2 540.9 -120.2 526.5C-157.2 512 -189.6 482.7 -219.5 455.9C-249.5 429.1 -277 404.7 -302.4 379.2C-327.8 353.7 -351 326.9 -376.8 300.5C-402.7 274.1 -431.2 248.1 -450.5 216.9C-469.8 185.8 -479.9 149.6 -493.3 112.6C-506.7 75.6 -523.4 37.8 -540 0L0 0Z" fill="#b9aeff"></path><path d="M0 270C-20.8 270.2 -41.6 270.4 -60.1 263.2C-78.6 256 -94.8 241.4 -109.8 227.9C-124.8 214.5 -138.5 202.4 -151.2 189.6C-163.9 176.8 -175.5 163.5 -188.4 150.3C-201.3 137.1 -215.6 124 -225.2 108.5C-234.9 92.9 -240 74.8 -246.7 56.3C-253.4 37.8 -261.7 18.9 -270 0L0 0Z" fill="#b1a6ff"></path></g><g transform="translate(0, 540)"><path d="M0 -540C42.1 -534.5 84.1 -528.9 115.3 -505C146.4 -481.1 166.7 -438.8 205.7 -427.1C244.6 -415.4 302.2 -434.3 332.9 -417.5C363.6 -400.7 367.4 -348.3 394.8 -314.9C422.2 -281.4 473.3 -266.9 486.5 -234.3C499.7 -201.7 475.1 -151.1 477.7 -109C480.3 -67 510.2 -33.5 540 0L0 0Z" fill="#b9aeff"></path><path d="M0 -270C21 -267.2 42.1 -264.5 57.6 -252.5C73.2 -240.5 83.4 -219.4 102.8 -213.5C122.3 -207.7 151.1 -217.1 166.5 -208.7C181.8 -200.4 183.7 -174.2 197.4 -157.4C211.1 -140.7 236.7 -133.4 243.3 -117.1C249.9 -100.9 237.6 -75.5 238.9 -54.5C240.2 -33.5 255.1 -16.7 270 0L0 0Z" fill="#b1a6ff"></path></g></svg>